PathFileType	4	(X/Y/Z)	/Users/itak/Documents/Research/Walk-IL/dataset/trc/00425_00167.trc
DataRate	CameraRate	NumFrames	NumMarkers	Units	OrigDataRate	OrigDataStartFrame	OrigNumFrames
100.000000	100.000000	4	53	mm	100.000000	188	754
Frame#	Time	RPSI			LPSI			L3			STRN			T10			C7			CLAV			RBAK			LBAK			LSHO			LUPA			LAEL			LAOL			LWTS			LWPS			LFRA			LIFD			LHPS			LHTS			RSHO			RUPA			RAEL			RAOL			RWTS			RWPS			RFRA			RIFD			RHTS			RHPS			RBHD			LFHD			RFHD			LBHD			LHIP			RHIP			RASI			LASI			LKNE			LTHI			LANK			LTIP			LTOE			LMT1			LMT5			LHEE			RKNE			RTHI			RANK			RTIP			RTOE			RMT1			RMT5			RHEE			
		X1	Y1	Z1	X2	Y2	Z2	X3	Y3	Z3	X4	Y4	Z4	X5	Y5	Z5	X6	Y6	Z6	X7	Y7	Z7	X8	Y8	Z8	X9	Y9	Z9	X10	Y10	Z10	X11	Y11	Z11	X12	Y12	Z12	X13	Y13	Z13	X14	Y14	Z14	X15	Y15	Z15	X16	Y16	Z16	X17	Y17	Z17	X18	Y18	Z18	X19	Y19	Z19	X20	Y20	Z20	X21	Y21	Z21	X22	Y22	Z22	X23	Y23	Z23	X24	Y24	Z24	X25	Y25	Z25	X26	Y26	Z26	X27	Y27	Z27	X28	Y28	Z28	X29	Y29	Z29	X30	Y30	Z30	X31	Y31	Z31	X32	Y32	Z32	X33	Y33	Z33	X34	Y34	Z34	X35	Y35	Z35	X36	Y36	Z36	X37	Y37	Z37	X38	Y38	Z38	X39	Y39	Z39	X40	Y40	Z40	X41	Y41	Z41	X42	Y42	Z42	X43	Y43	Z43	X44	Y44	Z44	X45	Y45	Z45	X46	Y46	Z46	X47	Y47	Z47	X48	Y48	Z48	X49	Y49	Z49	X50	Y50	Z50	X51	Y51	Z51	X52	Y52	Z52	X53	Y53	Z53	

189	1.88	-1056.946044921875	944.1200561523438	-406.7122192382812	-984.9069213867188	945.35205078125	-528.7115478515625	-1016.50634765625	1052.667602539062	-462.9795532226562	-763.2517700195312	1234.711547851562	-343.62255859375	-1020.575378417969	1176.905029296875	-478.026123046875	-957.0681762695312	1440.751098632812	-431.2139892578125	-791.4345703125	1349.970092773438	-361.4721069335938	-1062.120361328125	1324.911010742188	-380.089111328125	-940.2779541015625	1397.921630859375	-536.2877807617188	-810.2647705078125	1413.05615234375	-555.7388305664062	-772.9295654296875	1296.496826171875	-650.2807006835938	-740.9911499023438	1077.234375	-667.2604370117188	-844.7252197265625	1067.937622070312	-667.0042114257812	-719.9356689453125	869.2544555664062	-588.60107421875	-718.9984741210938	857.3856811523438	-662.0074462890625	-723.1578369140625	988.2998046875	-664.142822265625	-725.6552734375	701.2221069335938	-597.7344970703125	-720.0347290039062	776.3193359375	-659.6558837890625	-709.3348999023438	778.8920288085938	-589.2176513671875	-973.33837890625	1405.201904296875	-258.86083984375	-1027.181762695312	1344.0244140625	-202.2434692382812	-1053.242553710938	1059.439575195312	-146.03564453125	-1084.08984375	1040.491577148438	-203.5617218017578	-932.5144653320312	869.17822265625	-131.6839599609375	-1016.135070800781	844.229736328125	-120.0250244140625	-1050.752807617188	1001.15380859375	-134.6394958496094	-918.027099609375	711.0772705078125	-125.8178405761719	-916.0191040039062	770.4561767578125	-108.4198303222656	-990.6141967773438	759.6110229492188	-109.9393081665039	-922.548583984375	1629.765991210938	-316.2845458984375	-727.3495483398438	1645.771240234375	-384.5772094726562	-792.6275024414062	1647.139892578125	-271.0392150878906	-847.7667236328125	1633.189819335938	-478.001220703125	-816.5608520507812	840.7232055664062	-566.3607177734375	-1004.757263183594	868.3343505859375	-210.1014251708984	-891.5368041992188	915.530029296875	-239.3754119873047	-762.1165771484375	879.0861206054688	-455.7586059570312	-893.2857055664062	422.3160705566406	-527.1092529296875	-836.8003540039062	571.724609375	-533.7820434570312	-1023.369873046875	33.88530349731445	-556.4257202148438	-924.6262817382812	269.1701354980469	-535.977294921875	-876.5902099609375	43.08931350708008	-372.0392761230469	-951.7319946289062	48.90466690063477	-392.6804504394531	-889.462646484375	46.95745468139648	-486.0991821289062	-1097.3896484375	32.62131500244141	-544.0927124023438	-816.80224609375	526.13330078125	-113.2601699829102	-894.3876342773438	770.1173706054688	-124.0972747802734	-785.2779541015625	90.37334442138672	-84.40995025634766	-808.6012573242188	379.7469177246094	-83.48609161376953	-582.5955200195312	135.6286163330078	-11.97152519226074	-617.3522338867188	132.4154968261719	-77.61418151855469	-684.2191162109375	110.4687576293945	1.019524812698364	-813.7181396484375	74.70770263671875	-159.7473297119141	
190	1.89	-1053.317504882812	943.2393188476562	-403.6127319335938	-981.3309936523438	944.5053100585938	-525.5900268554688	-1013.263366699219	1051.71533203125	-459.793212890625	-759.9943237304688	1233.855590820312	-340.6067199707031	-1017.527954101562	1175.934692382812	-474.7941589355469	-954.0613403320312	1439.78955078125	-427.8597717285156	-788.2973022460938	1349.117919921875	-358.3753356933594	-1058.968139648438	1323.819458007812	-376.7178649902344	-937.361572265625	1397.026977539062	-532.9718627929688	-807.4109497070312	1412.22314453125	-552.6114501953125	-770.1402587890625	1295.706665039062	-647.2735595703125	-738.24169921875	1076.468994140625	-664.4771728515625	-842.047607421875	1067.21337890625	-664.0382080078125	-717.13818359375	868.4148559570312	-586.0487670898438	-716.3019409179688	856.6028442382812	-659.4489135742188	-720.4514770507812	987.5216674804688	-661.4658813476562	-722.8969116210938	700.3773193359375	-595.2971801757812	-717.3740844726562	775.5215454101562	-657.179443359375	-706.4761962890625	778.0562133789062	-586.7352294921875	-970.1973876953125	1404.088256835938	-255.5025939941406	-1023.941040039062	1342.782104492188	-198.953369140625	-1049.825317382812	1058.043334960938	-143.3292083740234	-1080.554931640625	1039.2060546875	-200.9078063964844	-929.1034545898438	867.7431030273438	-129.0744171142578	-1012.757446289062	842.8346557617188	-117.5529251098633	-1047.33544921875	999.763671875	-131.994873046875	-914.71240234375	709.628662109375	-123.4196319580078	-912.7105712890625	768.9887084960938	-105.9117279052734	-987.3418579101562	758.1981811523438	-107.4938812255859	-919.814453125	1628.830078125	-313.2975463867188	-724.6841430664062	1645.199951171875	-381.7303771972656	-789.9334106445312	1646.647827148438	-268.1315002441406	-845.138671875	1632.122314453125	-475.0758056640625	-813.2843627929688	840.0380249023438	-563.7584838867188	-1001.036071777344	867.1597900390625	-207.2602081298828	-887.8509521484375	914.3880615234375	-236.4961547851562	-758.6069946289062	878.2723388671875	-453.1470031738281	-890.8867797851562	421.653076171875	-525.0416259765625	-833.8995971679688	571.0844116210938	-531.3775024414062	-1023.363952636719	34.04072570800781	-556.2705688476562	-923.2449340820312	268.6018981933594	-534.5697631835938	-876.6985473632812	42.99628448486328	-371.81982421875	-951.7281494140625	48.7710075378418	-392.5958862304688	-889.5347900390625	47.03292846679688	-485.9959411621094	-1097.421264648438	32.75305938720703	-543.9559936523438	-814.4857788085938	523.5200805664062	-111.6828536987305	-891.5386352539062	767.8580932617188	-121.7050552368164	-775.7665405273438	88.79151916503906	-77.79379272460938	-803.8858032226562	377.7339172363281	-80.31338500976562	-573.63427734375	137.9800567626953	-6.343344688415527	-608.4541625976562	133.5006103515625	-71.85494995117188	-674.8504638671875	111.4150390625	7.146777153015137	-804.0162353515625	71.79998779296875	-152.9781341552734	
191	1.9	-1049.569946289062	942.314697265625	-400.4364624023438	-977.6383056640625	943.6102294921875	-522.40185546875	-1009.908142089844	1050.73486328125	-456.5068664550781	-756.6535034179688	1232.972778320312	-337.4702453613281	-1014.376220703125	1174.93701171875	-471.4621276855469	-950.9698486328125	1438.799682617188	-424.3788452148438	-785.0604858398438	1348.244384765625	-355.1563415527344	-1055.730834960938	1322.695190429688	-373.2179565429688	-934.35107421875	1396.113647460938	-529.5316162109375	-804.4581909179688	1411.382202148438	-549.3456420898438	-767.2376098632812	1294.918579101562	-644.1395874023438	-735.3941040039062	1075.698120117188	-661.56396484375	-839.2806396484375	1066.50244140625	-660.9618530273438	-714.280517578125	867.568115234375	-583.3692016601562	-713.5462646484375	855.8140258789062	-656.7630615234375	-717.6627807617188	986.7327880859375	-658.6631469726562	-720.1047973632812	699.5165405273438	-592.7257690429688	-714.6593017578125	774.7130737304688	-654.57958984375	-703.5586547851562	777.2130126953125	-584.1199340820312	-966.9609375	1402.935668945312	-252.0243682861328	-1020.598571777344	1341.49853515625	-195.5293273925781	-1046.287719726562	1056.61328125	-140.489013671875	-1076.912841796875	1037.890625	-198.1214904785156	-925.6038818359375	866.2420043945312	-126.3616561889648	-1009.294677734375	841.391357421875	-114.9738998413086	-1043.809448242188	998.3321533203125	-129.2187652587891	-911.3525390625	708.1098022460938	-120.9413375854492	-909.32861328125	767.4459838867188	-103.3225326538086	-984.003662109375	756.728759765625	-104.9560394287109	-917.0108642578125	1627.870971679688	-310.1813659667969	-721.9558715820312	1644.609497070312	-378.7480773925781	-787.1651000976562	1646.118286132812	-265.0989074707031	-842.4356079101562	1631.035766601562	-472.0172424316406	-809.9175415039062	839.305908203125	-561.08935546875	-997.2213134765625	865.92919921875	-204.3562622070312	-884.0416870117188	913.1981201171875	-233.5289916992188	-754.976318359375	877.4315185546875	-450.4618530273438	-888.3760375976562	420.9364318847656	-522.8885498046875	-830.9171752929688	570.3873901367188	-528.8827514648438	-1023.333435058594	34.19248580932617	-556.1065063476562	-921.7879028320312	268.0016174316406	-533.0867309570312	-876.7689208984375	42.89329528808594	-371.6033630371094	-951.7182006835938	48.6240234375	-392.5083618164062	-889.5906372070312	47.09871292114258	-485.8948974609375	-1097.446044921875	32.91322326660156	-543.8110961914062	-812.1038818359375	520.8479614257812	-110.0737380981445	-888.6229858398438	765.5404663085938	-119.2820129394531	-766.4293212890625	87.29377746582031	-71.29634094238281	-799.109130859375	375.6975402832031	-77.15468597412109	-564.7842407226562	140.2817993164062	-1.182722568511963	-599.7478637695312	134.5563201904297	-66.49535369873047	-665.5504150390625	112.3691940307617	12.95836544036865	-794.589111328125	69.00380706787109	-146.2818145751953	
192	1.91	-1045.708740234375	941.3483276367188	-397.1806335449219	-973.828125	942.6651611328125	-519.1499633789062	-1006.437744140625	1049.721435546875	-453.1250305175781	-753.224853515625	1232.058471679688	-334.2148132324219	-1011.114074707031	1173.908081054688	-468.0294189453125	-947.7899780273438	1437.7783203125	-420.7706909179688	-781.7214965820312	1347.3427734375	-351.8121032714844	-1052.40478515625	1321.533325195312	-369.5903625488281	-931.2418212890625	1395.178588867188	-525.9664306640625	-801.3991088867188	1410.529541015625	-545.936767578125	-764.2203979492188	1294.130737304688	-640.8763427734375	-732.4530029296875	1074.916870117188	-658.5223999023438	-836.4221801757812	1065.796630859375	-657.7753295898438	-711.3623657226562	866.7081909179688	-580.5628662109375	-710.7311401367188	855.0116577148438	-653.9492797851562	-714.7920532226562	985.9300537109375	-655.7360229492188	-717.268310546875	698.6375122070312	-590.0195922851562	-711.8821411132812	773.8936157226562	-651.8564453125	-700.5943603515625	776.355712890625	-581.37451171875	-963.625732421875	1401.74267578125	-248.4245452880859	-1017.156555175781	1340.172607421875	-191.9703063964844	-1042.634643554688	1055.151977539062	-137.5057678222656	-1073.17236328125	1036.545288085938	-195.1936492919922	-922.0184326171875	864.6778564453125	-123.5433654785156	-1005.747741699219	839.9009399414062	-112.2828674316406	-1040.177124023438	996.8604736328125	-126.3068008422852	-907.9523315429688	706.5260009765625	-118.3736114501953	-905.8759155273438	765.8300170898438	-100.6465454101562	-980.594482421875	755.2046508789062	-102.3279647827148	-914.137939453125	1626.883056640625	-306.9346923828125	-719.1654052734375	1643.999145507812	-375.6239624023438	-784.3262329101562	1645.547729492188	-261.9389343261719	-839.6531372070312	1629.928466796875	-468.8210144042969	-806.4632568359375	838.5269775390625	-558.3576049804688	-993.308837890625	864.6389770507812	-201.39208984375	-880.1103515625	911.95703125	-230.4753723144531	-751.2424926757812	876.5586547851562	-447.7212219238281	-885.7662353515625	420.1778869628906	-520.6580200195312	-827.8726196289062	569.63427734375	-526.309326171875	-1023.279541015625	34.34133529663086	-555.9417114257812	-920.2493286132812	267.375732421875	-531.5372924804688	-876.798095703125	42.78146362304688	-371.3923645019531	-951.7033081054688	48.46607971191406	-392.4176940917969	-889.6267700195312	47.15326309204102	-485.7977294921875	-1097.464111328125	33.10626983642578	-543.6580200195312	-809.6494140625	518.1315307617188	-108.432975769043	-885.6344604492188	763.1791381835938	-116.8273010253906	-757.2568969726562	85.85842132568359	-64.92955017089844	-794.2854614257812	373.6502685546875	-74.01033782958984	-556.0438842773438	142.5282745361328	3.500655174255371	-591.2377319335938	135.5651550292969	-61.54189682006836	-656.3106079101562	113.3139724731445	18.4524097442627	-785.45751953125	66.31136322021484	-139.6438446044922	
